HIERARCHY
ROOT Hips
{
    OFFSET 0.000000 0.000000 0.000000
    CHANNELS 6 Xposition Yposition Zposition Zrotation Yrotation Xrotation
    JOINT LeftUpLeg
    {
        OFFSET 9.147710 -10.042348 4.006903
        CHANNELS 3 Zrotation Yrotation Xrotation
        JOINT LeftLeg
        {
            OFFSET 13.237925 -36.370876 0.000000
            CHANNELS 3 Zrotation Yrotation Xrotation
            JOINT LeftFoot
            {
                OFFSET 15.478299 -42.526321 0.000000
                CHANNELS 3 Zrotation Yrotation Xrotation
                JOINT LeftToeBase
                {
                    OFFSET 0.961354 -2.641241 11.745206
                    CHANNELS 3 Zrotation Yrotation Xrotation
                    End Site
                    {
                        OFFSET 0.000000 0.000000 0.000000
                    }
                }
            }
        }
    }
    JOINT RightUpLeg
    {
        OFFSET -8.794597 -10.042348 4.006903
        CHANNELS 3 Zrotation Yrotation Xrotation
        JOINT RightLeg
        {
            OFFSET -13.165168 -36.171009 0.000000
            CHANNELS 3 Zrotation Yrotation Xrotation
            JOINT RightFoot
            {
                OFFSET -15.736475 -43.235710 0.000000
                CHANNELS 3 Zrotation Yrotation Xrotation
                JOINT RightToeBase
                {
                    OFFSET -1.281674 -3.521429 11.517907
                    CHANNELS 3 Zrotation Yrotation Xrotation
                    End Site
                    {
                        OFFSET 0.000000 0.000000 0.000000
                    }
                }
            }
        }
    }
    JOINT Spine
    {
        OFFSET 0.124346 10.812696 0.404196
        CHANNELS 3 Zrotation Yrotation Xrotation
        JOINT Spine1
        {
            OFFSET 0.098213 10.753993 0.656782
            CHANNELS 3 Zrotation Yrotation Xrotation
            JOINT Neck1
            {
                OFFSET -0.611909 10.361199 0.286002
                CHANNELS 3 Zrotation Yrotation Xrotation
                JOINT Head
                {
                    OFFSET 0.372587 9.864154 -2.850704
                    CHANNELS 3 Zrotation Yrotation Xrotation
                    End Site
                    {
                        OFFSET 0.000000 0.000000 0.000000
                    }
                }
            }
            JOINT LeftShoulder
            {
                OFFSET 0.000000 0.000000 0.000000
                CHANNELS 3 Zrotation Yrotation Xrotation
                JOINT LeftArm
                {
                    OFFSET 16.202759 7.646469 0.909369
                    CHANNELS 3 Zrotation Yrotation Xrotation
                    JOINT LeftForeArm
                    {
                        OFFSET 30.682507 -0.000000 0.000000
                        CHANNELS 3 Zrotation Yrotation Xrotation
                        JOINT LeftHand
                        {
                            OFFSET 18.370264 -0.000000 0.000000
                            CHANNELS 3 Zrotation Yrotation Xrotation
                            End Site
                            {
                                OFFSET 0.000000 0.000000 0.000000
                            }
                        }
                    }
                }
            }
            JOINT RightShoulder
            {
                OFFSET 0.000000 0.000000 0.000000
                CHANNELS 3 Zrotation Yrotation Xrotation
                JOINT RightArm
                {
                    OFFSET -16.179277 6.970157 2.593997
                    CHANNELS 3 Zrotation Yrotation Xrotation
                    JOINT RightForeArm
                    {
                        OFFSET -30.131502 -0.000000 0.000000
                        CHANNELS 3 Zrotation Yrotation Xrotation
                        JOINT RightHand
                        {
                            OFFSET -18.239765 -0.000000 0.000000
                            CHANNELS 3 Zrotation Yrotation Xrotation
                            End Site
                            {
                                OFFSET 0.000000 0.000000 0.000000
                            }
                        }
                    }
                }
            }
        }
    }
}
MOTION
Frames: 7
Frame Time: 0.016667
4.994730 83.632515 -247.307709 0.058400 4.503202 24.106800 -24.276117 -9.466507 -18.361401 4.806102 13.162004 39.978001 4.246300 7.481900 -41.934299 0.247100 -3.198800 -8.832904 9.544708 16.396603 -72.649612 -15.332993 -19.469606 76.237701 -0.626100 -3.474001 -16.610912 -0.543300 4.722300 -13.118199 1.737618 -6.774936 -4.807994 2.317600 -1.938200 -1.177601 -0.125015 -4.061956 -8.695926 3.145501 -1.248700 3.244501 0.000000 0.000000 0.000000 -85.147408 -6.963395 53.503296 31.306698 -41.987499 -12.274499 0.000000 0.000000 -10.456504 0.000000 0.000000 0.000000 84.868927 -15.302805 27.521198 -23.220802 34.329418 -7.262401 0.000000 0.000000 2.083200 
4.841202 83.493095 -245.713150 -0.158200 4.833002 24.311111 -23.635096 -8.629703 -17.626804 4.777205 13.128507 39.851311 4.119600 6.912000 -41.111507 0.541500 -4.714700 -13.096501 10.389806 16.286411 -72.191528 -15.707811 -19.552511 77.360054 -0.790600 -1.104100 -17.232500 -0.392600 4.023100 -11.141706 2.461316 -7.708694 -4.648190 2.347400 -2.196802 -2.034301 -0.620682 -3.277268 -8.568598 3.289100 -1.022200 3.393299 0.000000 0.000000 0.000000 -84.926102 -6.368101 52.985401 33.214211 -43.494015 -13.569307 0.000000 0.000000 -12.017803 0.000000 0.000000 0.000000 84.299210 -16.070999 28.602211 -24.062595 35.230400 -7.742599 0.000000 0.000000 2.199700 
4.643648 83.349159 -243.963379 -0.164900 5.312503 24.379112 -23.024302 -7.690506 -16.991707 4.859702 13.224101 40.213123 3.983800 5.751402 -39.985207 0.894100 -6.026900 -16.862511 11.377503 16.033604 -71.141106 -16.066607 -19.624910 78.430122 -0.843501 -0.146200 -17.413811 -0.381700 3.967800 -10.986204 2.748841 -8.086315 -4.356229 2.162900 -2.313900 -1.770200 -0.532941 -3.272279 -9.671153 3.250199 -1.031201 3.785400 0.000000 0.000000 0.000000 -84.219795 -6.806000 53.175499 35.403400 -45.098099 -15.098398 0.000000 0.000000 -13.152400 0.000000 0.000000 0.000000 84.462616 -15.678001 28.624298 -24.771202 35.969223 -8.155100 0.000000 0.000000 2.059501 
4.394166 83.138062 -242.391418 -0.410000 5.144500 24.639114 -22.246004 -6.984703 -17.090712 5.106102 13.502303 41.278900 3.927201 3.417500 -38.791100 1.040400 -6.487003 -18.204308 12.391604 16.542509 -70.166626 -16.394199 -19.685410 79.403893 -0.763300 -0.266800 -16.610500 -0.476000 4.424499 -12.274199 2.935799 -7.874116 -4.518974 2.117101 -2.244901 -2.500201 -0.744516 -3.014244 -8.880368 3.212501 -0.943600 3.470503 0.000000 0.000000 0.000000 -83.622894 -5.623901 53.025513 37.878616 -46.761604 -16.877104 0.000000 0.000000 -13.306400 0.000000 0.000000 0.000000 84.673920 -16.312101 28.486799 -25.541710 36.752510 -8.611903 0.000000 0.000000 1.821000 
4.127750 82.865997 -240.603271 -0.464299 5.069604 24.995106 -21.497412 -5.929001 -17.619406 5.470602 13.894902 42.818008 3.695002 1.553401 -37.002422 1.619300 -8.023502 -22.785610 13.439806 16.838415 -68.877441 -16.653496 -19.729311 80.172897 -0.690100 0.025600 -15.691909 -0.795801 5.694203 -15.899702 3.078430 -7.733576 -4.400614 2.188300 -2.194100 -3.061400 -1.184562 -3.162285 -9.501345 3.046101 -0.976901 3.765302 0.000000 0.000000 0.000000 -83.425919 -4.739506 52.408310 39.441616 -47.735622 -18.024914 0.000000 0.000000 -13.898904 0.000000 0.000000 0.000000 84.628014 -16.040699 28.727804 -26.135294 37.342010 -8.969600 0.000000 0.000000 1.579200 
3.902538 82.629501 -238.512589 -0.597400 5.332599 24.849804 -20.404512 -4.452605 -17.812508 5.989199 14.417905 44.938404 3.302500 -0.548200 -34.336918 2.206700 -9.284002 -26.687712 15.132498 16.549805 -66.052612 -16.618807 -19.723700 80.070000 -0.835100 0.392100 -17.144712 -1.083900 6.617003 -18.585497 3.528183 -7.821455 -5.113964 2.045501 -2.232002 -3.207600 -1.716933 -3.157525 -8.330721 2.853202 -0.947701 3.214901 0.000000 0.000000 0.000000 -83.372520 -2.538502 51.388329 40.277809 -48.233601 -18.646202 0.000000 0.000000 -16.735100 0.000000 0.000000 0.000000 84.427689 -16.823900 29.468807 -26.813902 38.001194 -9.384296 0.000000 0.000000 1.473601 
3.628220 82.376633 -236.411743 -0.820500 5.468801 25.055891 -19.185600 -4.100202 -18.987110 6.887702 15.236613 48.448105 2.797801 -3.455599 -30.837908 2.593601 -10.006104 -28.996401 16.702812 16.601006 -63.398430 -16.273708 -19.663807 79.046028 -1.205200 0.697600 -20.540400 -1.156801 6.828402 -19.208000 4.090703 -7.480925 -5.347048 1.860300 -2.156001 -2.713402 -2.151215 -3.305690 -9.361096 2.802000 -0.984301 3.642202 0.000000 0.000000 0.000000 -83.599442 -1.774202 49.253021 40.598419 -48.420399 -18.885607 0.000000 0.000000 -19.715799 0.000000 0.000000 0.000000 84.215179 -15.657399 29.975109 -27.197016 38.366425 -9.621105 0.000000 0.000000 0.906900 
